<svg xmlns="http://www.w3.org/2000/svg" width="35.138" height="35.13" viewBox="0 0 35.138 35.13">
  <path id="Icon_awesome-instagram" data-name="Icon awesome-instagram" d="M17.567,10.8A9.007,9.007,0,1,0,26.574,19.8,8.993,8.993,0,0,0,17.567,10.8Zm0,14.862A5.856,5.856,0,1,1,23.423,19.8a5.866,5.866,0,0,1-5.856,5.856ZM29.044,10.427a2.1,2.1,0,1,1-2.1-2.1A2.1,2.1,0,0,1,29.044,10.427Zm5.965,2.132c-.133-2.814-.776-5.307-2.838-7.361s-4.547-2.7-7.361-2.838c-2.9-.165-11.594-.165-14.494,0-2.806.133-5.3.776-7.361,2.83S.259,9.738.118,12.552c-.165,2.9-.165,11.594,0,14.494.133,2.814.776,5.307,2.838,7.361s4.547,2.7,7.361,2.838c2.9.165,11.594.165,14.494,0,2.814-.133,5.307-.776,7.361-2.838s2.7-4.547,2.838-7.361c.165-2.9.165-11.586,0-14.486Zm-3.747,17.6A5.928,5.928,0,0,1,27.923,33.5c-2.312.917-7.8.705-10.355.705s-8.05.2-10.355-.705a5.928,5.928,0,0,1-3.339-3.339c-.917-2.312-.705-7.8-.705-10.355s-.2-8.05.705-10.355A5.928,5.928,0,0,1,7.212,6.108c2.312-.917,7.8-.705,10.355-.705s8.05-.2,10.355.705a5.928,5.928,0,0,1,3.339,3.339c.917,2.312.705,7.8.705,10.355S32.179,27.853,31.262,30.158Z" transform="translate(0.005 -2.238)" fill="#ffe715"/>
</svg>
