<svg xmlns="http://www.w3.org/2000/svg" width="35.131" height="35.13" viewBox="0 0 35.131 35.13">
  <path id="Icon_awesome-linkedin-in" data-name="Icon awesome-linkedin-in" d="M7.864,35.13H.58V11.676H7.864ZM4.218,8.477A4.238,4.238,0,1,1,8.436,4.219,4.254,4.254,0,0,1,4.218,8.477Zm30.9,26.654H27.855V23.713c0-2.721-.055-6.211-3.787-6.211-3.787,0-4.367,2.956-4.367,6.015V35.13H12.426V11.676h6.985v3.2h.1A7.653,7.653,0,0,1,26.4,11.088c7.371,0,8.726,4.854,8.726,11.159V35.13Z" transform="translate(0 -0.001)" fill="#ffe715"/>
</svg>
