<svg xmlns="http://www.w3.org/2000/svg" width="40.149" height="28.466" viewBox="0 0 40.149 28.466">
  <path id="Icon_simple-upwork" data-name="Icon simple-upwork" d="M31.05,21.408a8.206,8.206,0,0,1-5.142-2.053l.381-1.8.013-.07c.346-1.912,1.42-5.119,4.749-5.119a4.521,4.521,0,1,1,0,9.042Zm0-13.617c-4.247,0-7.545,2.759-8.883,7.3a37.356,37.356,0,0,1-4.5-9.857H13.1v11.9a4.259,4.259,0,1,1-8.518,0V5.238H0v11.9a8.836,8.836,0,1,0,17.672,0V15.145a28.077,28.077,0,0,0,3.3,5.388L18.176,33.7h4.679l2.029-9.552a11.28,11.28,0,0,0,6.166,1.855,9.108,9.108,0,0,0,0-18.216Z" transform="translate(0 -5.238)" fill="#ffe715"/>
</svg>
